<svg width="33" height="33" viewBox="0 0 33 33" fill="none" xmlns="http://www.w3.org/2000/svg">
<path d="M28.2829 5.39563C28.1084 5.31637 27.9147 5.28895 27.725 5.31665C27.5353 5.34436 27.3575 5.42601 27.2129 5.55188C23.7129 8.57938 20.7479 7.11188 17.3117 5.41063C13.7517 3.64688 9.71542 1.65063 5.21292 5.55188C5.10534 5.64513 5.01891 5.76028 4.95941 5.88962C4.89992 6.01896 4.86872 6.15951 4.86792 6.30188V27.3019C4.86792 27.5671 4.97328 27.8215 5.16081 28.009C5.34835 28.1965 5.6027 28.3019 5.86792 28.3019C6.13314 28.3019 6.38749 28.1965 6.57503 28.009C6.76256 27.8215 6.86792 27.5671 6.86792 27.3019V21.7731C10.2167 19.1281 13.1017 20.5544 16.4242 22.1994C18.4742 23.2131 20.6817 24.3056 23.0492 24.3056C24.7904 24.3056 26.6167 23.7119 28.5267 22.0556C28.6343 21.9624 28.7207 21.8472 28.7802 21.7179C28.8397 21.5886 28.8709 21.448 28.8717 21.3056V6.30188C28.8707 6.1103 28.8146 5.92304 28.7103 5.76238C28.6059 5.60171 28.4576 5.47442 28.2829 5.39563ZM6.86792 19.3569V13.5369C8.97417 12.1269 10.9479 12.0881 12.8679 12.6194V18.5869C10.9767 18.1106 8.97667 18.1406 6.86792 19.3569ZM26.8679 20.8331C24.7592 22.4981 22.8342 22.5481 20.8679 21.9469V15.9881C18.1654 15.2381 15.5704 13.3631 12.8679 12.6194V5.66063C14.0242 6.01438 15.1942 6.59188 16.4242 7.20063C17.8317 7.89688 19.3129 8.62938 20.8679 9.02063V15.9881C22.7867 16.5194 24.7604 16.4806 26.8679 15.0694V20.8331Z" fill="#8C512E"/>
</svg>
