<svg width="29" height="26" viewBox="0 0 29 26" fill="none" xmlns="http://www.w3.org/2000/svg">
<path d="M24.2562 3.87499C23.0503 2.64373 21.6099 1.6665 20.0202 1.00097C18.4304 0.335437 16.7234 -0.00491742 15 -8.68603e-06H14C13.7348 -8.68603e-06 13.4804 0.105348 13.2929 0.292884C13.1053 0.480421 13 0.734775 13 0.999991V4.44124L0.47622 12.1487C0.363949 12.2179 0.26646 12.3085 0.189364 12.4155C0.112268 12.5225 0.0570869 12.6436 0.0269971 12.772C-0.00309273 12.9004 -0.00749748 13.0334 0.0140363 13.1635C0.0355701 13.2936 0.0826173 13.4182 0.15247 13.53L1.87497 16.28L1.91247 16.3337C2.34847 16.9425 2.94735 17.4159 3.64033 17.6996C4.3333 17.9833 5.09225 18.0658 5.82997 17.9375C7.57122 17.6425 10.6575 17.12 13.505 18.3487L10.18 22.92C9.26706 22.4861 8.42097 21.9237 7.66747 21.25C7.46856 21.0731 7.20753 20.9825 6.94182 20.9981C6.6761 21.0137 6.42746 21.1342 6.2506 21.3331C6.07373 21.532 5.98312 21.7931 5.99871 22.0588C6.0143 22.3245 6.13481 22.5731 6.33372 22.75C8.7195 24.8648 11.8032 26.0224 14.9912 26H15.2625C17.8035 25.9498 20.2741 25.1559 22.3686 23.7164C24.4632 22.2769 26.0899 20.2551 27.0475 17.9009C28.0052 15.5467 28.2517 12.9635 27.7567 10.4706C27.2617 7.97777 26.0469 5.6847 24.2625 3.87499H24.2562ZM14.5 11C14.2033 11 13.9133 10.912 13.6666 10.7472C13.4199 10.5824 13.2277 10.3481 13.1142 10.074C13.0006 9.79993 12.9709 9.49833 13.0288 9.20736C13.0867 8.91638 13.2295 8.64911 13.4393 8.43933C13.6491 8.22955 13.9164 8.08669 14.2073 8.02881C14.4983 7.97094 14.7999 8.00064 15.074 8.11417C15.3481 8.2277 15.5824 8.41996 15.7472 8.66664C15.912 8.91331 16 9.20332 16 9.49999C16 9.89782 15.8419 10.2793 15.5606 10.5607C15.2793 10.842 14.8978 11 14.5 11Z" fill="#8C512E"/>
</svg>
