<svg width="33" height="33" viewBox="0 0 33 33" fill="none" xmlns="http://www.w3.org/2000/svg">
<path d="M29.7342 27.8019C29.6464 27.9539 29.5201 28.0802 29.3681 28.1679C29.216 28.2557 29.0435 28.3019 28.8679 28.3019H4.86793C4.69248 28.3017 4.52017 28.2553 4.36829 28.1675C4.21642 28.0797 4.09032 27.9534 4.00268 27.8014C3.91503 27.6494 3.86891 27.4771 3.86896 27.3016C3.869 27.1262 3.91521 26.9538 4.00293 26.8019C5.90668 23.5106 8.84043 21.1506 12.2642 20.0319C10.5706 19.0237 9.25487 17.4875 8.51892 15.6591C7.78297 13.8308 7.66754 11.8114 8.19036 9.91106C8.71318 8.01075 9.84533 6.3346 11.413 5.14002C12.9806 3.94543 14.897 3.29846 16.8679 3.29846C18.8388 3.29846 20.7553 3.94543 22.3229 5.14002C23.8905 6.3346 25.0227 8.01075 25.5455 9.91106C26.0683 11.8114 25.9529 13.8308 25.2169 15.6591C24.481 17.4875 23.1652 19.0237 21.4717 20.0319C24.8954 21.1506 27.8292 23.5106 29.7329 26.8019C29.8209 26.9538 29.8673 27.1262 29.8675 27.3017C29.8678 27.4772 29.8218 27.6497 29.7342 27.8019Z" fill="#8C512E"/>
</svg>
